<svg xmlns="http://www.w3.org/2000/svg" viewBox="0 0 586.07 672.58">
  <defs>
    <style>
      .mass-bag {
        fill: #5bb947;
        fill-rule: evenodd;
      }
    </style>
  </defs>
  <path class="mass-bag" d="M477.78,104.91l3.54.32,33.18,32,39,1c5.85,0,13.39-.65,15.78,2.93,3.33,5,4.29,29.15,5.79,37.17q6.6,45.15,13.21,90.31,19,129.92,38,259.84,5.81,39.62,11.6,79.23c1.72,9,6.14,26.59,4.18,35.21-9.29,6.37-26,7.17-37.68,10.43l-87,22.17c-5.57,1.58-37.18,10-39.93,8.8a2.73,2.73,0,0,1-1.93-1.63c-2.69-3.37-1-30.92-1-37.82V539.17q.17-215.8.32-431.66Z" transform="translate(-56.45 -13.28)"/>
  <path class="mass-bag" d="M462.32,548.3V125.45c0-6.59,1.63-27.94-1-31.63-3.64-5.18-17.93,4.23-23.51,2.93-4.22-1.86-4.94-9.06-6.76-13.36A123.59,123.59,0,0,0,415,56a64.14,64.14,0,0,0-33.82-22.17c-4.4-1.14-16.72-.34-19.65-1.63L350.89,22.1c-9-6.35-20.18-9-35.75-8.81L305.8,14.6c-8,1.89-16.38,4.65-22.87,8.47-35.91,21.19-59.12,56.79-76,97.16a286.9,286.9,0,0,0-11.59,35.21L191.46,174c-2,3-16.46,5.75-20.93,7.18l-42.52,14c-6.08,2.22-14,3.26-17.39,8.16-3.2,4.62-2.67,11.86-3.86,18.58q-2.9,22.82-5.8,45.64Q89.85,353.83,78.74,440.06L61.67,570.14q-2.1,16.14-4.19,32.28c-.64,3.58-2,10.19,0,12.71,2.83,3.64,14.52,3.12,19.65,4.24l61.19,10.76,232.21,41.08L437.2,683c4.15.92,20.5,4.3,22.87,2.28,3.82-2.33,2.25-26.36,2.25-33.58ZM347.66,59.59h3.23c6.77,6.17,14.86,46.18,10.62,61.29-4.16,3-10.33,3.8-15.78,5.54l-43.8,14c-2.91,0-4.3-.91-5.15-2.93-1.89-4.83,5.45-18.65,7.08-22.5,6.84-16.07,16-34,28.67-44.34ZM229.79,121.53C243.57,89.7,263.7,59.92,292.27,43c6.56-3.89,14-3.89,21.9-7.17,7.59-.2,14.87-.48,17.39,4.56-.19,5.75-19.37,18.83-23.51,24.13-11.86,15.2-21.37,32.62-29,52.16l-9.66,32.6c-1.93,3.4-9.52,3.95-13.52,5.22-8.25,2.62-33.82,13.55-39.94,8.8C213.71,152.94,226,130.23,229.79,121.53ZM167,352.68l6.45-49.55c7.68-25.2,35.85-18.39,57-29,19.67-.29,13.17,24.56,11.92,40.43l-12.56,8.15c-8.36,6.5-16,16.15-21.58,25.43-3.69,6.16-6.6,14.08-8.7,21.52-.64,2.82-1.28,5.65-1.93,8.47-1.6,1.56-5,.83-7.73,1.31-9.85,1.76-18.73,3-22.54-5.22C164.69,368.57,165.77,359.4,167,352.68Zm49.6,184.86c-7.21,3.65-28.61-1.71-36.71-3.26-11.24-2.15-28.33-1.64-34.14-9.45-8.9-12-4.42-35.78-1.61-51.84,4.57-26.12,1.14-60.37,20.29-71.73,4.79-2.84,23.4-3.28,30.59-3.26-2.57,13.24-5.38,23.13-11.27,32.6l-7.41,10.11c-1.51,4.75,4.23,9.31,6.77,11.41,10.69-14.15,21.37-28.45,31.24-43.36,2.17-3.28,9.89-10.38,8-15.65l-6.76-6.52c-4.61-7.36,1.83-15.17,6.12-17.93,15,1.2,5.91,17.67,10.3,22.17,1.37,1.12,6,.89,7.41,0,5.45-3.82,4-25.72,18.36-21.84,2.57,1,3.12,2.6,3.86,5.54,2.83,11.17-8.45,17.94-15.78,20.54-.67,4.32-.94,10.65,1,14.34,1.33,1,8.66-.29,11.91,1.63,9.84,5.79,4.63,20.23-3.54,23.8-6.8-.18-10.29-8.57-11.59-14.34h-1c-5.27,3.11-8.87,8.9-12.56,13.69-10.49,13.62-20.43,28.32-31.56,41.41.28,5,2.18,11.94,5.79,13.69l1.94.33c5.1-8.32,18.07-24.46,30.27-24.78C236.39,491.56,234.33,528.56,216.58,537.54ZM371.5,462.23q-.33,24.28-.65,48.58v16c0,19.2-1.38,33.78-11.91,42.06-12.73,10-36.84,2.41-53.14-1L266.18,561c-6.2-1.3-12.66-1.26-17.07-4.23-14.72-9.95-13.79-36.57-10.3-59q1.27-16.8,2.57-33.58c7.46-1,15.85-1,22.23-3.27,19.53-6.89,33.3-26.18,41.86-44.33l5.16-14c1.9-3,26-.68,31.56-2.94C375.55,399.3,371.85,430,371.5,462.23Zm19.64-172.79q-.31,25.26-.64,50.53C387,359.32,375,374,358,379.74c-11.42,3.84-30.78,3.5-43.8,4.57.27-38.51-9.69-68.68-42.84-74.33-5.58-1-12.67-.85-18,1l1.29-18.58,1-15.32c2.12-11.2,6.74-19.35,12.56-26.74,9.22-11.69,27.34-14.2,43.16-19.23l41.55-13,10-2C398.41,216.4,391.14,254.08,391.14,289.44ZM412.4,106.21c-2.4,1.64-24.28,7.54-26.09,6.52-4.32-2.15-2.32-10-3.22-15.65-1.28-8-6.92-31.41-5.47-36.51l2.25-1.63c14.52-.16,31.25,28.74,34.46,41.4A5.84,5.84,0,0,1,412.4,106.21Z" transform="translate(-56.45 -13.28)"/>
  <path class="mass-bag" d="M168,484.4q-1,6.84-1.93,13.69l7.73-1.63C174.84,493.62,170.57,485.84,168,484.4Z" transform="translate(-56.45 -13.28)"/>
  <path class="mass-bag" d="M173.75,453.43c-1.37,3.22-4.84,18.85-3.54,22.49l10.95,18.91c4.48,0,13-.92,15.13-3.58,1-3.2-3-8.28-3.54-12.72C182.34,472.7,183.32,456.8,173.75,453.43Z" transform="translate(-56.45 -13.28)"/>
  <path class="mass-bag" d="M255.23,376.81c-.59-1-.45-.86-1.61-1.3-3.18,2.48-4.42,6.79-5.8,11.08v1.31C250.45,386.28,257.12,381.51,255.23,376.81Z" transform="translate(-56.45 -13.28)"/>
  <path class="mass-bag" d="M222.7,376.48l-1.61-.32-1.61,2.28a8.58,8.58,0,0,0,6.12,8.15C225.6,381.73,224.31,379.49,222.7,376.48Z" transform="translate(-56.45 -13.28)"/>
  <path class="mass-bag" d="M239.45,397.68c-4.08.53-7.65.57-10.95-1-7.06,15.24-17.39,27.65-27.05,40.43L187.28,456c-2.18,7,4,12.14,6.76,14.68,4.75-1.38,8.78-10.25,11.59-14l25.12-32.28c2.66-3.5,5.72-9,9.67-11.08C241.08,409.56,239.11,403,239.45,397.68Z" transform="translate(-56.45 -13.28)"/>
  <path class="mass-bag" d="M249.76,416.26c3.39.29,4.87,2.38,7.08,3.91-.14,2.81-.75,5-2.57,6.2-3-1.79-5.11-4.06-5.16-8.81Z" transform="translate(-56.45 -13.28)"/>
</svg>
